# xmcd
#
# Track frame offsets: 
#        150
#        14053
#        28375
#        42556
#        57635
#        72634
#        86786
#        102041
#        116335
#        129869
#        143601
#        156871
#        169827
#        183631
#        198036
#        211639
#        226899
#        241921
#        256056
#        270707
#        284768
#        298941
#        313787
#
# Disc length: 4374 seconds
#
# Revision: 0
# Processed by: cddbd v1.5.2PL0 Copyright (c) Steve Scherf et al.
# Submitted via: ExactAudioCopy v0.99pb4
#
DISCID=5d111417
DTITLE=Blind Willie Johnson - Nobody's Fault Bute Mine: Original Recod
DTITLE=ings 1927-30
DYEAR=1927
DGENRE=Blues
TTITLE0=I Know His Blood Can Make Me Whole
TTITLE1=Jesus Make Uo My Dying Bed
TTITLE2=It's Nobody's Fault But Mine
TTITLE3=Mother's Children Have A Hard Time
TTITLE4=Dark Was The Night (Cold Was The Ground)
TTITLE5=If I Had My Way I'd Burn The Building Down
TTITLE6=I'm Gonna Run To The City Of Refuge
TTITLE7=Jesus Is Coming Soon
TTITLE8=Lord I Just Can't Keep From Crying
TTITLE9=Kepp Your Lamp Trimmed And Burning
TTITLE10=God Don'T Never Change
TTITLE11=Bye And Bye I'm Goin' To See The King
TTITLE12=When The War Was On
TTITLE13=Praise God I'm Satisfied
TTITLE14=God Moves On The Water
TTITLE15=Can't Nobody Hide From God
TTITLE16=The Rain Don't Fall On Me
TTITLE17=Trouble Will Soon Be Over
TTITLE18=The Soul Of A Man
TTITLE19=Everybody Ought To Treat A Stranger Right
TTITLE20=Church, I'm Fully Save Today
TTITLE21=John The Revelator
TTITLE22=You're Gonna Need Somebody On Your Bond
EXTD=
EXTT0=
EXTT1=
EXTT2=
EXTT3=
EXTT4=
EXTT5=
EXTT6=
EXTT7=
EXTT8=
EXTT9=
EXTT10=
EXTT11=
EXTT12=
EXTT13=
EXTT14=
EXTT15=
EXTT16=
EXTT17=
EXTT18=
EXTT19=
EXTT20=
EXTT21=
EXTT22=
PLAYORDER=
